# xmcd
#
# Track frame offsets: 
#        150
#        4060
#        21510
#        39577
#        55292
#        63290
#        83065
#        99852
#        119362
#        128240
#        145895
#        162150
#        180982
#        184757
#        203865
#        223035
#        245725
#        251815
#
# Disc length: 3657 seconds
#
# Revision: 0
# Processed by: cddbd v1.4PL0 Copyright (c) Steve Scherf et al.
# Submitted via: ExactAudioCopy v0.90b2
#
DISCID=fd0e4712
DTITLE=Faith Evans - Faithfully
DYEAR=2001
DGENRE=R&B
TTITLE0=Intro
TTITLE1=Alone in This World
TTITLE2=You Gets No Love (feat. P. Diddy and Loon)
TTITLE3=Burnin' Up (feat. Loon)
TTITLE4=Love Song (interlude)
TTITLE5=I Love You
TTITLE6=Back to Love
TTITLE7=Do Your Time
TTITLE8=Faithful (interlude)
TTITLE9=Faithfully
TTITLE10=Don't Cry
TTITLE11=Brand New Man
TTITLE12=Everything (interlude)
TTITLE13=Where We Stand
TTITLE14=Heaven Only Knows
TTITLE15=Love Can't Hide
TTITLE16=Ghetto (interlude)
TTITLE17=Can't Believe (feat. Carl Thomas)
EXTD=
EXTT0=
EXTT1=
EXTT2=
EXTT3=
EXTT4=
EXTT5=
EXTT6=
EXTT7=
EXTT8=
EXTT9=
EXTT10=
EXTT11=
EXTT12=
EXTT13=
EXTT14=
EXTT15=
EXTT16=
EXTT17=
PLAYORDER=
